<svg xmlns="http://www.w3.org/2000/svg" id="Camada_2" data-name="Camada 2" viewBox="0 0 1024.31 115.17"><defs><style>      .cls-1 {        fill: #2f3d3c;      }    </style></defs><g id="Layer_1" data-name="Layer 1"><g><g><path class="cls-1" d="m10.33,20.67C4.64,20.67,0,16.03,0,10.34S4.64,0,10.33,0s10.34,4.64,10.34,10.33-4.64,10.34-10.33,10.34h0Z"></path><path class="cls-1" d="m10.33,52.17c-5.7,0-10.33-4.64-10.33-10.33s4.64-10.34,10.33-10.34,10.34,4.64,10.34,10.33-4.64,10.34-10.33,10.34h0Z"></path><path class="cls-1" d="m10.33,83.67c-5.7,0-10.33-4.64-10.33-10.33s4.64-10.34,10.33-10.34,10.34,4.64,10.34,10.33-4.64,10.34-10.33,10.34h0Z"></path><path class="cls-1" d="m41.84,52.17c-5.7,0-10.33-4.64-10.33-10.33s4.64-10.34,10.34-10.34,10.34,4.64,10.34,10.33-4.64,10.34-10.33,10.34h0Z"></path><path class="cls-1" d="m41.84,83.67c-5.7,0-10.33-4.64-10.33-10.33s4.64-10.34,10.33-10.34,10.34,4.64,10.34,10.33-4.64,10.34-10.33,10.34h0Z"></path><path class="cls-1" d="m104.84,52.17c-5.7,0-10.33-4.64-10.33-10.34s4.64-10.34,10.33-10.34,10.34,4.64,10.34,10.33-4.64,10.34-10.33,10.34h0Z"></path><path class="cls-1" d="m104.84,83.67c-5.7,0-10.33-4.64-10.33-10.34s4.64-10.33,10.33-10.33,10.34,4.64,10.34,10.33-4.64,10.34-10.33,10.34h0Z"></path><path class="cls-1" d="m73.34,83.67c-5.7,0-10.33-4.64-10.33-10.33s4.64-10.34,10.33-10.34,10.34,4.64,10.34,10.33-4.64,10.34-10.33,10.34h0Z"></path><path class="cls-1" d="m10.33,115.17c-5.7,0-10.33-4.64-10.33-10.33s4.64-10.33,10.33-10.33,10.34,4.64,10.34,10.33-4.64,10.34-10.33,10.34h0Z"></path><path class="cls-1" d="m136.34,20.67c-5.7,0-10.33-4.64-10.33-10.33s4.64-10.34,10.33-10.34,10.34,4.64,10.34,10.33-4.64,10.34-10.33,10.34h0Z"></path><path class="cls-1" d="m136.34,52.17c-5.7,0-10.33-4.64-10.33-10.33s4.64-10.34,10.33-10.34,10.34,4.64,10.34,10.33-4.64,10.34-10.33,10.34h0Z"></path><path class="cls-1" d="m136.34,83.67c-5.7,0-10.33-4.64-10.33-10.33s4.64-10.34,10.33-10.34,10.34,4.64,10.34,10.33-4.64,10.34-10.33,10.34h0Z"></path><path class="cls-1" d="m136.34,115.17c-5.7,0-10.33-4.64-10.33-10.33s4.64-10.33,10.33-10.33,10.34,4.64,10.34,10.33-4.64,10.34-10.33,10.34h0Z"></path></g><g><path class="cls-1" d="m815.89,17.07h-4.74c-21.08,0-38.16,17.09-38.16,38.16v4.73c0,21.08,17.09,38.16,38.16,38.16h4.74c21.08,0,38.16-17.09,38.16-38.16v-4.73c0-21.08-17.09-38.16-38.16-38.16m25.14,44.78c0,13.3-10.78,24.08-24.08,24.08h-6.86c-13.3,0-24.08-10.78-24.08-24.08v-8.51c0-13.3,10.78-24.08,24.08-24.08h6.86c13.3,0,24.08,10.78,24.08,24.08v8.51Z"></path><path class="cls-1" d="m952.15,95.05v-8.86c0-.63.51-1.15,1.15-1.15h48.78c3.89,0,7.4-2.38,8.73-5.92,1.06-2.82.85-5.87-.59-8.37-1.42-2.47-3.85-4.17-6.67-4.65l-36.75-6.01c-5.67-.97-12.4-4.28-15.53-9.09-3.2-4.91-4.14-10.84-2.66-16.71,2.27-9,12.16-15.29,21.63-15.29h47.04c.63,0,1.15.51,1.15,1.15v8.86c0,.63-.51,1.15-1.15,1.15h-47.12c-3.89,0-7.4,2.38-8.73,5.92-1.06,2.82-.85,5.87.59,8.37,1.42,2.47,3.85,4.17,6.67,4.65l36.75,6.01c5.67.97,12.4,4.28,15.53,9.09,3.2,4.91,4.14,10.85,2.66,16.71-2.27,9-12.16,15.29-21.63,15.29h-48.69c-.63,0-1.15-.51-1.15-1.15Z"></path><path class="cls-1" d="m911.7,19.82c-.16-.47-.6-.79-1.09-.79h-21.29c-.49,0-.93.32-1.09.79l-27.94,74.8c-.28.75.27,1.55,1.08,1.55h11.55c.5,0,.94-.32,1.09-.79l23.96-64.38c.16-.47.6-.79,1.09-.79h1.82c.5,0,.94.32,1.09.79l23.96,64.38c.16.47.6.79,1.09.79h11.55c.8,0,1.36-.8,1.08-1.55l-27.94-74.8Z"></path><path class="cls-1" d="m747.86,19.03h-22.47c-.5,0-.94.32-1.09.79l-23.96,64.37c-.16.47-.6.79-1.09.79h-1.86c-.5,0-.94-.32-1.09-.79l-23.96-64.37c-.16-.47-.6-.79-1.09-.79h-22.41c-.56,0-1.03.4-1.13.95l-13.28,74.84c-.12.7.42,1.35,1.13,1.35h11.23c.56,0,1.04-.4,1.13-.96l10.95-64.18c.09-.55.57-.96,1.13-.96h1.37c.49,0,.93.32,1.09.79l24.1,64.52c.16.47.6.79,1.09.79h21.33c.49,0,.93-.32,1.09-.79l24.1-64.52c.16-.47.6-.79,1.09-.79h1.38c.56,0,1.04.4,1.13.96l10.95,64.18c.09.55.57.96,1.13.96h11.29c.72,0,1.26-.65,1.13-1.35l-13.28-74.84c-.1-.55-.57-.95-1.13-.95Z"></path><g><path class="cls-1" d="m448.3,62.09c0,17.6-11.37,29.43-28.3,29.43h0c-16.93,0-28.3-11.83-28.3-29.43V18.88h-5.03v43.16c0,20.52,13.01,34.39,32.46,34.8v.02h1.75v-.02c19.45-.41,32.46-14.28,32.46-34.8V18.88h-5.03v43.2Z"></path><path class="cls-1" d="m584.9,18.3h-3.14c-20.8,0-37.71,16.92-37.71,37.71v3.13c0,20.8,16.92,37.71,37.71,37.71h3.14c20.8,0,37.71-16.92,37.71-37.71v-3.13c0-20.8-16.92-37.71-37.71-37.71Zm32.37,42.56c0,16.9-14.17,30.65-31.59,30.65h-4.71c-17.42,0-31.59-13.75-31.59-30.65v-6.56c0-16.9,14.17-30.65,31.59-30.65h4.71c17.42,0,31.59,13.75,31.59,30.65v6.56Z"></path><path class="cls-1" d="m294.63,61.97v-4.19h-37.51v5h32.24v.02c-1.05,15.84-15.22,28.73-31.59,28.73h-4.57c-17.16,0-31.66-14.04-31.66-30.65v-6.56c0-16.62,14.5-30.65,31.66-30.65h4.57c11.59,0,22.06,6.42,27.33,16.75l.4.79,5.01-2.62-.43-.78c-6.65-12.01-19.3-19.48-33.02-19.48h-3.14c-20.8,0-37.71,16.92-37.71,37.71v3.13c0,20.8,16.92,37.71,37.71,37.71h3.14c19.47,0,35.6-14.59,37.53-33.93l.02-.16h.04v-.38l.04-.42h-.04Z"></path><path class="cls-1" d="m371.37,43.03v-1.82c0-12.07-9.64-21.9-21.61-22.27v-.03h-41.55v77.35h5.03v-30.92h34.3l18.38,30.92h6.1l-18.75-31.33c10.29-1.98,18.09-11.04,18.09-21.89Zm-58.13-19.13h35.78c9.22,0,17.01,7.52,17.01,16.42v3.6c0,8.9-7.79,16.42-17.01,16.42h-35.78V23.91Z"></path><path class="cls-1" d="m511.76,18.94v-.03h-41.56v77.35h5.04v-30.92h36.64v-.04c11.93-.43,21.5-10.24,21.5-22.26v-1.82c0-12.07-9.64-21.9-21.61-22.27Zm16.27,24.98c0,8.9-7.79,16.42-17.01,16.42h-35.78V23.91h35.78c9.22,0,17.01,7.52,17.01,16.42v3.6Z"></path></g></g></g></g></svg>